<svg width="43" height="35" viewBox="0 0 43 35" fill="none" xmlns="http://www.w3.org/2000/svg">
<g clip-path="url(#clip0_207_37)" filter="url(#filter0_f_207_37)">
<path d="M37.7167 14.4521L32.0729 8.74998C31.9373 8.61329 31.776 8.5048 31.5983 8.43076C31.4206 8.35672 31.23 8.3186 31.0375 8.3186C30.845 8.3186 30.6544 8.35672 30.4767 8.43076C30.2989 8.5048 30.1376 8.61329 30.0021 8.74998C29.7305 9.02321 29.578 9.39283 29.578 9.7781C29.578 10.1634 29.7305 10.533 30.0021 10.8062L35.1937 16.0416H5.45832C5.07155 16.0416 4.70062 16.1953 4.42713 16.4688C4.15363 16.7423 3.99999 17.1132 3.99999 17.5H3.99999C3.99999 17.8867 4.15363 18.2577 4.42713 18.5312C4.70062 18.8047 5.07155 18.9583 5.45832 18.9583H35.2812L30.0021 24.2229C29.8654 24.3585 29.7569 24.5198 29.6829 24.6975C29.6088 24.8752 29.5707 25.0658 29.5707 25.2583C29.5707 25.4508 29.6088 25.6414 29.6829 25.8191C29.7569 25.9969 29.8654 26.1582 30.0021 26.2937C30.1376 26.4304 30.2989 26.5389 30.4767 26.6129C30.6544 26.687 30.845 26.7251 31.0375 26.7251C31.23 26.7251 31.4206 26.687 31.5983 26.6129C31.776 26.5389 31.9373 26.4304 32.0729 26.2937L37.7167 20.6354C38.536 19.8151 38.9961 18.7031 38.9961 17.5437C38.9961 16.3843 38.536 15.2724 37.7167 14.4521Z" fill="#FC5994"/>
</g>
<g clip-path="url(#clip1_207_37)">
<path d="M37.7167 14.4521L32.0729 8.74998C31.9373 8.61329 31.776 8.5048 31.5983 8.43076C31.4206 8.35672 31.23 8.3186 31.0375 8.3186C30.845 8.3186 30.6544 8.35672 30.4767 8.43076C30.2989 8.5048 30.1376 8.61329 30.0021 8.74998C29.7305 9.02321 29.578 9.39283 29.578 9.7781C29.578 10.1634 29.7305 10.533 30.0021 10.8062L35.1937 16.0416H5.45832C5.07155 16.0416 4.70062 16.1953 4.42713 16.4688C4.15363 16.7423 3.99999 17.1132 3.99999 17.5H3.99999C3.99999 17.8867 4.15363 18.2577 4.42713 18.5312C4.70062 18.8047 5.07155 18.9583 5.45832 18.9583H35.2812L30.0021 24.2229C29.8654 24.3585 29.7569 24.5198 29.6829 24.6975C29.6088 24.8752 29.5707 25.0658 29.5707 25.2583C29.5707 25.4508 29.6088 25.6414 29.6829 25.8191C29.7569 25.9969 29.8654 26.1582 30.0021 26.2937C30.1376 26.4304 30.2989 26.5389 30.4767 26.6129C30.6544 26.687 30.845 26.7251 31.0375 26.7251C31.23 26.7251 31.4206 26.687 31.5983 26.6129C31.776 26.5389 31.9373 26.4304 32.0729 26.2937L37.7167 20.6354C38.536 19.8151 38.9961 18.7031 38.9961 17.5437C38.9961 16.3843 38.536 15.2724 37.7167 14.4521Z" fill="#FF8DB6"/>
</g>
<defs>
<filter id="filter0_f_207_37" x="0" y="-4" width="43" height="43" filterUnits="userSpaceOnUse" color-interpolation-filters="sRGB">
<feFlood flood-opacity="0" result="BackgroundImageFix"/>
<feBlend mode="normal" in="SourceGraphic" in2="BackgroundImageFix" result="shape"/>
<feGaussianBlur stdDeviation="2" result="effect1_foregroundBlur_207_37"/>
</filter>
<clipPath id="clip0_207_37">
<rect width="35" height="35" fill="white" transform="translate(4)"/>
</clipPath>
<clipPath id="clip1_207_37">
<rect width="35" height="35" fill="white" transform="translate(4)"/>
</clipPath>
</defs>
</svg>
