<svg width="15" height="21" viewBox="0 0 15 21" fill="none" xmlns="http://www.w3.org/2000/svg">
<g clip-path="url(#clip0_207_59)" filter="url(#filter0_f_207_59)">
<path d="M4.3749 18C4.29265 18.0005 4.21111 17.9847 4.13496 17.9536C4.05881 17.9225 3.98955 17.8767 3.93115 17.8187C3.87257 17.7606 3.82607 17.6915 3.79434 17.6153C3.76261 17.5392 3.74628 17.4575 3.74628 17.375C3.74628 17.2925 3.76261 17.2108 3.79434 17.1346C3.82607 17.0585 3.87257 16.9893 3.93115 16.9312L9.0374 11.825C9.38853 11.4734 9.58575 10.9969 9.58575 10.5C9.58575 10.0031 9.38853 9.52655 9.0374 9.17499L3.93115 4.06874C3.81346 3.95105 3.74734 3.79143 3.74734 3.62499C3.74734 3.45855 3.81346 3.29893 3.93115 3.18124C4.04884 3.06355 4.20846 2.99744 4.3749 2.99744C4.54134 2.99744 4.70096 3.06355 4.81865 3.18124L9.9249 8.28749C10.2159 8.57777 10.4468 8.92262 10.6044 9.30228C10.7619 9.68193 10.843 10.0889 10.843 10.5C10.843 10.911 10.7619 11.318 10.6044 11.6977C10.4468 12.0773 10.2159 12.4222 9.9249 12.7125L4.81865 17.8187C4.76025 17.8767 4.69099 17.9225 4.61484 17.9536C4.53869 17.9847 4.45715 18.0005 4.3749 18Z" fill="#FC59B1"/>
</g>
<g clip-path="url(#clip1_207_59)">
<path d="M4.3749 18C4.29265 18.0005 4.21111 17.9847 4.13496 17.9536C4.05881 17.9225 3.98955 17.8767 3.93115 17.8187C3.87257 17.7606 3.82607 17.6915 3.79434 17.6153C3.76261 17.5392 3.74628 17.4575 3.74628 17.375C3.74628 17.2925 3.76261 17.2108 3.79434 17.1346C3.82607 17.0585 3.87257 16.9893 3.93115 16.9312L9.0374 11.825C9.38853 11.4734 9.58575 10.9969 9.58575 10.5C9.58575 10.0031 9.38853 9.52655 9.0374 9.17499L3.93115 4.06874C3.81346 3.95105 3.74734 3.79143 3.74734 3.62499C3.74734 3.45855 3.81346 3.29893 3.93115 3.18124C4.04884 3.06355 4.20846 2.99744 4.3749 2.99744C4.54134 2.99744 4.70096 3.06355 4.81865 3.18124L9.9249 8.28749C10.2159 8.57777 10.4468 8.92262 10.6044 9.30228C10.7619 9.68193 10.843 10.0889 10.843 10.5C10.843 10.911 10.7619 11.318 10.6044 11.6977C10.4468 12.0773 10.2159 12.4222 9.9249 12.7125L4.81865 17.8187C4.76025 17.8767 4.69099 17.9225 4.61484 17.9536C4.53869 17.9847 4.45715 18.0005 4.3749 18Z" fill="#FF8AC9"/>
</g>
<defs>
<filter id="filter0_f_207_59" x="-3" y="0" width="21" height="21" filterUnits="userSpaceOnUse" color-interpolation-filters="sRGB">
<feFlood flood-opacity="0" result="BackgroundImageFix"/>
<feBlend mode="normal" in="SourceGraphic" in2="BackgroundImageFix" result="shape"/>
<feGaussianBlur stdDeviation="1.5" result="effect1_foregroundBlur_207_59"/>
</filter>
<clipPath id="clip0_207_59">
<rect width="15" height="15" fill="white" transform="translate(0 3)"/>
</clipPath>
<clipPath id="clip1_207_59">
<rect width="15" height="15" fill="white" transform="translate(0 3)"/>
</clipPath>
</defs>
</svg>
